# Blender v2.72 (sub 0) OBJ File: 'Thornball.blend'
# www.blender.org
mtllib Needle.mtl
o Needle_Cube
v 0.000000 61.344166 0.000000
v 0.000000 -61.344166 0.000000
v 0.000000 -61.344166 0.000000
v 0.000000 61.344166 0.000000
v -0.000001 0.000000 14.142136
v 14.142136 0.000000 0.000001
v -14.142136 0.000000 -0.000001
v 0.000001 0.000000 -14.142136
vt -0.000000 1.000000
vt 0.000000 -0.000000
vt 1.000000 0.000000
vn 0.697900 -0.160900 0.697900
vn -0.697900 0.160900 -0.697900
vn 0.697900 -0.160900 -0.697900
vn -0.697900 -0.160900 0.697900
vn 0.697900 0.160900 0.697900
vn -0.697900 -0.160900 -0.697900
vn 0.697900 0.160900 -0.697900
vn -0.697900 0.160900 0.697900
usemtl None
s off
f 5/1/1 2/2/1 6/3/1
f 7/1/2 1/2/2 8/3/2
f 6/1/3 2/2/3 8/3/3
f 7/1/4 2/2/4 5/3/4
f 1/1/5 5/2/5 6/3/5
f 2/1/6 7/2/6 8/3/6
f 1/1/7 6/2/7 8/3/7
f 1/1/8 7/2/8 5/3/8
