# Blender v2.72 (sub 0) OBJ File: ''
# www.blender.org
mtllib SimpleCube.mtl
o Cube
v -9.999995 -9.999994 -10.000000
v -9.999995 9.999995 -10.000000
v 9.999996 9.999993 -10.000000
v 9.999991 -9.999999 -10.000000
v -10.000000 -9.999990 10.000000
v -9.999989 10.000001 10.000000
v 9.999999 9.999991 10.000000
v 9.999994 -9.999995 10.000000
vt 0.000000 -1.000000
vt -1.000000 -1.000000
vt -1.000000 0.000000
vt -1.000000 1.000000
vt -0.000000 -0.000000
vt -0.000000 1.000000
vt 1.000000 1.000000
vt 1.000000 0.000000
vn 0.000000 0.000000 -1.000000
vn 0.000000 0.000000 1.000000
vn -1.000000 0.000000 -0.000000
vn 0.000000 1.000000 -0.000000
vn 1.000000 -0.000000 -0.000000
vn -0.000000 -1.000000 0.000000
usemtl Material
s off
f 2/1/1 3/2/1 4/3/1
f 8/4/2 7/3/2 6/5/2
f 1/5/3 5/6/3 6/4/3
f 2/5/4 6/6/4 7/4/4
f 7/6/5 8/7/5 4/8/5
f 1/1/6 4/2/6 8/3/6
f 1/5/1 2/1/1 4/3/1
f 5/6/2 8/4/2 6/5/2
f 2/3/3 1/5/3 6/4/3
f 3/3/4 2/5/4 7/4/4
f 3/5/5 7/6/5 4/8/5
f 5/5/6 1/1/6 8/3/6
