# Blender v2.72 (sub 0) OBJ File: 'Thornball.blend'
# www.blender.org
mtllib Thornball.mtl
o Thornball_Icosphere
v -0.000000 0.000000 -18.260956
v -13.213628 9.600149 -8.166574
v 5.047054 15.533500 -8.166574
v 16.333055 0.000000 -8.166574
v 5.047054 -15.533500 -8.166574
v -13.213628 -9.600149 -8.166574
v -5.047054 15.533500 8.166574
v 13.213628 9.600149 8.166574
v 13.213628 -9.600149 8.166574
v -5.047054 -15.533500 8.166574
v -16.333055 0.000000 8.166574
v -0.000000 0.000000 18.260956
v -0.000000 0.000000 -18.260956
v -13.213628 9.600149 -8.166574
v 5.047054 15.533500 -8.166574
v 16.333055 0.000000 -8.166574
v 5.047054 -15.533500 -8.166574
v -13.213628 -9.600149 -8.166574
v -5.047054 15.533500 8.166574
v 13.213628 9.600149 8.166574
v 13.213628 -9.600149 8.166574
v -5.047054 -15.533500 8.166574
v -16.333055 0.000000 8.166574
v -0.000000 0.000000 18.260956
v -9.953392 25.832785 -38.079281
v -25.602543 0.000000 -38.079323
v 23.534281 18.932325 -38.079315
v 23.534281 -18.932325 -38.079315
v -9.953391 -25.832785 -38.079281
v -45.508915 0.000000 -5.870111
v -13.581251 41.798088 -5.869874
v 35.555511 25.832966 -5.869806
v 35.555511 -25.832966 -5.869806
v -13.581251 -41.798088 -5.869874
v -35.555511 25.832966 5.869805
v 13.581251 41.798088 5.869873
v 45.508915 0.000000 5.870111
v 13.581251 -41.798088 5.869873
v -35.555511 -25.832966 5.869805
v -23.534281 18.932325 38.079315
v 9.953391 25.832785 38.079281
v 25.602543 0.000000 38.079323
v 9.953392 -25.832785 38.079281
v -23.534281 -18.932325 38.079315
vt 1.000084 2.000603
vt -0.000014 3.000701
vt 1.000084 3.000701
vt 3.000701 1.000084
vt 3.000701 -0.000014
vt 2.000603 1.000084
vt 2.000603 -0.000224
vt 3.000701 -0.000224
vt 3.000701 -1.000323
vt 1.000294 3.000701
vt 2.000393 2.000603
vt 2.000393 3.000701
vt 3.000701 1.000294
vt 3.000701 2.000393
vt 2.000603 2.000393
vt 3.000911 -2.000842
vt 4.001010 -2.000842
vt 4.001010 -3.000940
vt -2.000842 4.001010
vt -3.000940 4.001010
vt -2.000842 3.000911
vt 3.000701 3.000701
vt 2.000603 3.000701
vt 3.000701 2.000603
vt -2.000631 4.001010
vt -1.000533 4.001010
vt -1.000533 3.000911
vt 3.000911 -1.000533
vt 4.001010 -1.000533
vt 4.001010 -2.000631
vt -2.000701 4.000940
vt -2.000701 3.000842
vt -1.000603 3.000842
vt 3.000842 -1.000603
vt 3.000842 -2.000701
vt 4.000940 -2.000701
vt 3.000842 -2.000912
vt 4.000940 -3.001010
vt 3.000842 -3.001010
vt -3.001010 4.000940
vt -2.000912 3.000842
vt -3.001010 3.000842
vt 2.000533 3.000631
vt 3.000631 2.000533
vt 2.000533 2.000533
vt 1.000224 2.000533
vt 1.000224 3.000631
vt 2.000323 2.000533
vt 3.000631 1.000224
vt 2.000533 1.000224
vt 2.000533 2.000323
vt 3.000631 -0.000084
vt 2.000533 -0.000084
vt 2.000533 1.000014
vt -0.000084 2.000533
vt 1.000014 2.000533
vt -0.000084 3.000631
vt 2.000533 -0.000294
vt 2.000533 -1.000393
vt 3.000631 -1.000393
vt 2.000393 2.000393
vt 2.000393 1.000294
vt 1.000294 2.000393
vt 3.000701 -2.000842
vt 3.000701 -3.000940
vt 2.000603 -2.000842
vt -1.000323 3.000701
vt -0.000224 2.000603
vt -0.000224 3.000701
vt -1.000393 2.000533
vt -1.000393 3.000631
vt -0.000294 2.000533
vt -0.000014 2.000393
vt 1.000084 1.000294
vt 1.000084 2.000393
vt 1.000084 -2.000842
vt 1.000084 -3.000940
vt -0.000014 -2.000842
vt 1.000084 -1.000533
vt 1.000084 -2.000631
vt -0.000014 -1.000533
vt -3.000940 1.000084
vt -2.000842 -0.000014
vt -2.000842 1.000084
vt -3.000940 -1.000533
vt -2.000842 -2.000631
vt -2.000842 -1.000533
vt -1.000533 -2.000842
vt -1.000533 -3.000940
vt -2.000631 -2.000842
vt -2.000842 -2.000842
vt -2.000842 -3.000940
vt -3.000940 -2.000842
vt -0.000224 1.000084
vt -0.000224 -0.000014
vt -1.000323 1.000084
vt -0.000014 -0.000224
vt 1.000084 -1.000323
vt 1.000084 -0.000224
vt -1.000533 1.000084
vt -1.000533 -0.000014
vt -2.000631 1.000084
vt -1.000323 -0.000224
vt -0.000224 -1.000323
vt -0.000224 -0.000224
vt -1.000323 -1.000533
vt -0.000224 -2.000631
vt -0.000224 -1.000533
vt -1.000533 -0.000224
vt -1.000533 -1.000323
vt -2.000631 -0.000224
vt -1.000533 -1.000533
vt -1.000533 -2.000631
vt -2.000631 -1.000533
vt -1.000323 -2.000842
vt -0.000224 -3.000940
vt -0.000224 -2.000842
vt -3.000940 -0.000224
vt -2.000842 -1.000323
vt -2.000842 -0.000224
vt -3.000940 3.000701
vt -2.000842 2.000603
vt -2.000842 3.000701
vt 2.000603 -1.000533
vt 3.000701 -2.000631
vt 3.000701 -1.000533
vt 2.000393 1.000084
vt 2.000393 -0.000014
vt 1.000294 1.000084
vt -2.000631 3.000701
vt -1.000533 2.000603
vt -1.000533 3.000701
vt 3.000631 -2.000701
vt 2.000533 -1.000603
vt 2.000533 -2.000701
vt -2.000701 2.000533
vt -2.000701 3.000631
vt -1.000603 2.000533
vt -3.000940 2.000393
vt -2.000842 1.000294
vt -2.000842 2.000393
vt 2.000533 -3.001010
vt 2.000533 -2.000912
vt 3.000631 -3.001010
vt -3.001010 2.000533
vt -3.001010 3.000631
vt -2.000912 2.000533
vt 2.000323 1.000224
vt 1.000224 2.000323
vt 1.000224 1.000224
vt -0.000014 1.000084
vt 1.000084 -0.000014
vt 1.000084 1.000084
vt 1.000294 -2.000842
vt 2.000393 -3.000940
vt 2.000393 -2.000842
vt 1.000224 -0.000084
vt 1.000224 1.000014
vt 2.000323 -0.000084
vt 1.000294 -1.000533
vt 2.000393 -2.000631
vt 2.000393 -1.000533
vt -1.000533 2.000393
vt -1.000533 1.000294
vt -2.000631 2.000393
vt -0.000224 2.000393
vt -0.000224 1.000294
vt -1.000323 2.000393
vt 1.000294 -0.000224
vt 2.000393 -1.000323
vt 2.000393 -0.000224
vt 1.000014 1.000224
vt -0.000084 2.000323
vt -0.000084 1.000224
vt 1.000224 -1.000393
vt 1.000224 -0.000294
vt 2.000323 -1.000393
vt -0.000294 1.000224
vt -1.000393 2.000323
vt -1.000393 1.000224
vt -2.000701 1.000224
vt -2.000701 2.000323
vt -1.000603 1.000224
vt 1.000224 -2.000701
vt 1.000224 -1.000603
vt 2.000323 -2.000701
vt -2.000912 1.000224
vt -3.001010 2.000323
vt -3.001010 1.000224
vt 2.000323 -3.001010
vt 1.000224 -2.000912
vt 1.000224 -3.001010
vt -0.000084 -0.000084
vt -0.000084 1.000014
vt 1.000014 -0.000084
vt 1.000014 -1.000393
vt -0.000084 -0.000294
vt -0.000084 -1.000393
vt -1.000393 -0.000084
vt -1.000393 1.000014
vt -0.000294 -0.000084
vt -2.000701 -0.000084
vt -2.000701 1.000014
vt -1.000603 -0.000084
vt 1.000014 -2.000701
vt -0.000084 -1.000603
vt -0.000084 -2.000701
vt -3.001010 -0.000084
vt -3.001010 1.000014
vt -2.000912 -0.000084
vt 1.000014 -3.001010
vt -0.000084 -2.000912
vt -0.000084 -3.001010
vt -0.000294 -1.000393
vt -1.000393 -0.000294
vt -1.000393 -1.000393
vt -2.000701 -1.000393
vt -2.000701 -0.000294
vt -1.000603 -1.000393
vt -0.000294 -2.000701
vt -1.000393 -1.000603
vt -1.000393 -2.000701
vt -1.000393 -3.001010
vt -1.000393 -2.000912
vt -0.000294 -3.001010
vt -3.001010 -1.000393
vt -3.001010 -0.000294
vt -2.000912 -1.000393
vt -1.000603 -2.000701
vt -2.000701 -1.000603
vt -2.000701 -2.000701
vt -2.000701 -3.001010
vt -2.000701 -2.000912
vt -1.000603 -3.001010
vt -2.000912 -2.000701
vt -3.001010 -1.000603
vt -3.001010 -2.000701
vt -3.001010 -3.001010
vt -3.001010 -2.000912
vt -2.000912 -3.001010
vn -0.187600 0.577400 -0.794700
vn -0.607100 0.000000 -0.794700
vn 0.491100 0.356800 -0.794700
vn 0.491100 -0.356800 -0.794700
vn -0.187600 -0.577400 -0.794700
vn -0.982200 0.000000 -0.187600
vn -0.303500 0.934200 -0.187600
vn 0.794600 0.577400 -0.187600
vn 0.794600 -0.577400 -0.187600
vn -0.303500 -0.934200 -0.187600
vn -0.794600 0.577400 0.187600
vn 0.303500 0.934200 0.187600
vn 0.982200 0.000000 0.187600
vn 0.303500 -0.934200 0.187600
vn -0.794600 -0.577400 0.187600
vn -0.491100 0.356800 0.794700
vn 0.187600 0.577400 0.794700
vn 0.607100 0.000000 0.794700
vn 0.187600 -0.577400 0.794700
vn -0.491100 -0.356800 0.794700
vn -0.887300 -0.042900 0.459200
vn -0.023000 0.070900 -0.997200
vn -0.222300 0.858500 0.462100
vn -0.222300 -0.858500 0.462100
vn -0.070900 0.000000 -0.997500
vn -0.717500 0.576400 -0.391000
vn -0.278300 -0.856600 0.434500
vn 0.894000 -0.000700 -0.448100
vn -0.755800 -0.511400 -0.409000
vn 0.703800 -0.511400 0.493100
vn 0.285800 0.839300 -0.462400
vn 0.285800 -0.839300 -0.462400
vn 0.703800 0.511400 0.493100
vn -0.755800 0.511400 -0.409000
vn -0.923900 0.000000 0.382600
vn 0.313900 -0.858500 -0.405500
vn 0.313900 0.858500 -0.405500
vn 0.894000 0.000700 -0.448100
vn -0.278300 0.856600 0.434500
vn -0.717500 -0.576400 -0.391000
vn 0.743000 0.486800 0.459200
vn 0.060300 0.043800 -0.997200
vn -0.315000 0.830600 0.459200
vn 0.692600 -0.556200 0.459200
vn 0.060300 -0.043800 -0.997200
vn 0.692600 0.556200 0.459200
vn -0.315000 -0.830600 0.459200
vn -0.023000 -0.070900 -0.997200
vn 0.743000 -0.486800 0.459200
vn -0.887300 0.042900 0.459200
vn -0.692600 -0.556200 -0.459200
vn -0.060300 0.043800 0.997200
vn 0.315000 0.830600 -0.459200
vn -0.743000 0.486800 -0.459200
vn 0.023000 0.070900 0.997200
vn 0.887300 -0.042900 -0.459200
vn 0.222300 0.858500 -0.462100
vn 0.070900 0.000000 0.997500
vn 0.222300 -0.858500 -0.462100
vn 0.887300 0.042900 -0.459200
vn 0.023000 -0.070900 0.997200
vn -0.743000 -0.486800 -0.459200
vn 0.315000 -0.830600 -0.459200
vn -0.060300 -0.043800 0.997200
vn -0.692600 0.556200 -0.459200
vn -0.703800 0.511400 -0.493100
vn -0.285800 -0.839300 0.462400
vn 0.755800 0.511400 0.409000
vn 0.278300 0.856600 -0.434500
vn -0.894000 0.000700 0.448100
vn 0.717500 -0.576400 0.391000
vn 0.923900 0.000000 -0.382600
vn -0.313900 0.858500 0.405500
vn -0.313900 -0.858500 0.405500
vn 0.278300 -0.856600 -0.434500
vn 0.717500 0.576400 0.391000
vn -0.894000 -0.000700 0.448100
vn -0.703800 -0.511400 -0.493100
vn 0.755800 -0.511400 0.409000
vn -0.285800 0.839300 0.462400
usemtl None
s off
f 1/1/1 2/2/1 3/3/1
f 2/4/2 1/5/2 6/6/2
f 1/7/3 3/8/3 4/9/3
f 1/10/4 4/11/4 5/12/4
f 1/13/5 5/14/5 6/15/5
f 2/16/6 6/17/6 11/18/6
f 3/19/7 2/20/7 7/21/7
f 4/22/8 3/23/8 8/24/8
f 5/25/9 4/26/9 9/27/9
f 6/28/10 5/29/10 10/30/10
f 2/31/11 11/32/11 7/33/11
f 3/34/12 7/35/12 8/36/12
f 4/37/13 8/38/13 9/39/13
f 5/40/14 9/41/14 10/42/14
f 6/43/15 10/44/15 11/45/15
f 7/46/16 11/47/16 12/48/16
f 8/49/17 7/50/17 12/51/17
f 9/52/18 8/53/18 12/54/18
f 10/55/19 9/56/19 12/57/19
f 11/58/20 10/59/20 12/60/20
f 19/61/21 31/62/21 14/63/21
f 14/64/22 31/65/22 15/66/22
f 14/67/23 30/68/23 23/69/23
f 23/70/24 30/71/24 18/72/24
f 18/73/25 30/74/25 14/75/25
f 13/76/26 29/77/26 18/78/26
f 18/79/27 29/80/27 17/81/27
f 17/82/28 29/83/28 13/84/28
f 13/85/29 28/86/29 17/87/29
f 17/88/30 28/89/30 16/90/30
f 16/91/31 28/92/31 13/93/31
f 13/94/32 27/95/32 16/96/32
f 16/97/33 27/98/33 15/99/33
f 15/100/34 27/101/34 13/102/34
f 14/103/35 26/104/35 18/105/35
f 18/106/36 26/107/36 13/108/36
f 13/109/37 26/110/37 14/111/37
f 13/112/38 25/113/38 15/114/38
f 15/115/39 25/116/39 14/117/39
f 14/118/40 25/119/40 13/120/40
f 15/121/41 31/122/41 19/123/41
f 15/124/42 32/125/42 16/126/42
f 20/127/43 32/128/43 15/129/43
f 16/130/44 32/131/44 20/132/44
f 16/133/45 33/134/45 17/135/45
f 21/136/46 33/137/46 16/138/46
f 17/139/47 33/140/47 21/141/47
f 17/142/48 34/143/48 18/144/48
f 22/145/49 34/146/49 17/147/49
f 18/148/50 34/149/50 22/150/50
f 23/151/51 35/152/51 14/153/51
f 19/154/52 35/155/52 23/156/52
f 14/157/53 35/158/53 19/159/53
f 19/160/54 36/161/54 15/162/54
f 20/163/55 36/164/55 19/165/55
f 15/166/56 36/167/56 20/168/56
f 20/169/57 37/170/57 16/171/57
f 21/172/58 37/173/58 20/174/58
f 16/175/59 37/176/59 21/177/59
f 21/178/60 38/179/60 17/180/60
f 22/181/61 38/182/61 21/183/61
f 17/184/62 38/185/62 22/186/62
f 22/187/63 39/188/63 18/189/63
f 23/190/64 39/191/64 22/192/64
f 18/193/65 39/194/65 23/195/65
f 23/196/66 40/197/66 19/198/66
f 24/199/67 40/200/67 23/201/67
f 19/202/68 40/203/68 24/204/68
f 19/205/69 41/206/69 20/207/69
f 24/208/70 41/209/70 19/210/70
f 20/211/71 41/212/71 24/213/71
f 20/214/72 42/215/72 21/216/72
f 24/217/73 42/218/73 20/219/73
f 21/220/74 42/221/74 24/222/74
f 21/223/75 43/224/75 22/225/75
f 24/226/76 43/227/76 21/228/76
f 22/229/77 43/230/77 24/231/77
f 22/232/78 44/233/78 23/234/78
f 24/235/79 44/236/79 22/237/79
f 23/238/80 44/239/80 24/240/80
